<svg width="1024.000000" height="1024.000000" viewBox="0 0 1024 1024" fill="none" xmlns="http://www.w3.org/2000/svg" xmlns:xlink="http://www.w3.org/1999/xlink">
	<desc>
			Created with Pixso.
	</desc>
	<g clip-path="url(#clip6_73)">
		<ellipse cx="512.666199" cy="511.666382" rx="466.666199" ry="466.666382" fill="url(#paint_linear_6_68_0)"/>
		<g filter="url(#filter_6_71_dd)">
			<rect x="359.287201" y="350.305054" rx="20.000000" width="390.173401" height="350.289032" fill="#38E274"/>
			<path d="M231.888 313.889L399.597 313.889C405.88 313.889 411.799 316.842 415.577 321.863L466.87 390.019C470.649 395.04 476.567 397.993 482.85 397.993L791.888 397.993C802.934 397.993 811.888 406.947 811.888 417.993L811.888 689.265C811.888 700.31 802.934 709.265 791.888 709.265L231.888 709.265C220.843 709.265 211.888 700.31 211.888 689.265L211.888 333.889C211.888 322.843 220.843 313.889 231.888 313.889Z" fill-rule="evenodd" fill="#FCDA01"/>
		</g>
	</g>
	<defs>
		<filter id="filter_6_71_dd" x="191.888306" y="313.888916" width="640.000000" height="435.375732" filterUnits="userSpaceOnUse" color-interpolation-filters="sRGB">
			<feFlood flood-opacity="0" result="BackgroundImageFix"/>
			<feColorMatrix in="SourceAlpha" type="matrix" values="0 0 0 0 0 0 0 0 0 0 0 0 0 0 0 0 0 0 127 0"/>
			<feOffset dx="0" dy="20"/>
			<feGaussianBlur stdDeviation="6.66667"/>
			<feColorMatrix type="matrix" values="0 0 0 0 0 0 0 0 0 0 0 0 0 0 0 0 0 0 0.25 0"/>
			<feBlend mode="normal" in2="BackgroundImageFix" result="effect_dropShadow_1"/>
			<feBlend mode="normal" in="SourceGraphic" in2="effect_dropShadow_1" result="shape"/>
		</filter>
		<clipPath id="clip6_73">
			<rect width="1024.000000" height="1024.000000" fill="white"/>
		</clipPath>
		<linearGradient id="paint_linear_6_68_0" x1="862.665894" y1="849.443848" x2="142.666687" y2="207.222260" gradientUnits="userSpaceOnUse">
			<stop stop-color="#0082E0"/>
			<stop offset="0.992366" stop-color="#5AB9FF"/>
		</linearGradient>
	</defs>
</svg>
