<svg width="1024.000000" height="1024.000000" viewBox="0 0 1024 1024" fill="none" xmlns="http://www.w3.org/2000/svg" xmlns:xlink="http://www.w3.org/1999/xlink">
	<desc>
			Created with Pixso.
	</desc>
	<g clip-path="url(#clip5_2)">
		<ellipse cx="511.777893" cy="545.777466" rx="466.666199" ry="466.666382" fill="url(#paint_linear_5_4_0)"/>
		<g filter="url(#filter_5_5_dd)">
			<path d="M205.281 350.658L515.859 703.491C527.482 716.695 549.263 709.543 550.796 692.019L607.346 45.6461C608.879 28.1222 588.672 17.2969 574.933 28.2822L207.804 321.823C198.887 328.953 197.737 342.088 205.281 350.658Z" fill-rule="evenodd" fill="#38E274"/>
			<path d="M213.005 966.179L879.496 593.423C882.025 592.008 884.21 589.52 885.94 586.493C887.665 583.475 888.937 579.925 889.652 576.371C890.365 572.829 890.525 569.282 890.03 566.248C889.536 563.223 888.39 560.706 886.488 559.207L635.048 361.058C634.21 360.397 633.223 360.065 632.145 360.037C631.066 360.008 629.894 360.283 628.686 360.835C627.477 361.388 626.231 362.219 625.003 363.302C623.773 364.387 622.562 365.727 621.426 367.295L214.242 929.167C210.559 934.249 207.732 939.591 205.788 944.629C203.836 949.687 202.774 954.436 202.629 958.303C202.484 962.18 203.261 965.163 204.984 966.671C206.709 968.18 209.378 968.207 213.005 966.179Z" fill-rule="evenodd" fill="#FCDA01"/>
		</g>
	</g>
	<defs>
		<filter id="filter_5_5_dd" x="-246.000000" y="-92.000000" width="1440.000000" height="1406.717407" filterUnits="userSpaceOnUse" color-interpolation-filters="sRGB">
			<feFlood flood-opacity="0" result="BackgroundImageFix"/>
			<feColorMatrix in="SourceAlpha" type="matrix" values="0 0 0 0 0 0 0 0 0 0 0 0 0 0 0 0 0 0 127 0"/>
			<feOffset dx="0" dy="20"/>
			<feGaussianBlur stdDeviation="6.66667"/>
			<feColorMatrix type="matrix" values="0 0 0 0 0 0 0 0 0 0 0 0 0 0 0 0 0 0 0.25 0"/>
			<feBlend mode="normal" in2="BackgroundImageFix" result="effect_dropShadow_1"/>
			<feBlend mode="normal" in="SourceGraphic" in2="effect_dropShadow_1" result="shape"/>
		</filter>
		<clipPath id="clip5_2">
			<rect width="1024.000000" height="1024.000000" fill="white"/>
		</clipPath>
		<linearGradient id="paint_linear_5_4_0" x1="861.777588" y1="883.554932" x2="141.778381" y2="241.333344" gradientUnits="userSpaceOnUse">
			<stop stop-color="#0082E0"/>
			<stop offset="0.992366" stop-color="#5AB9FF"/>
		</linearGradient>
	</defs>
</svg>
