<svg width="1024.000000" height="1024.000000" viewBox="0 0 1024 1024" fill="none" xmlns="http://www.w3.org/2000/svg" xmlns:xlink="http://www.w3.org/1999/xlink">
	<desc>
			Created with Pixso.
	</desc>
	<g clip-path="url(#clip9_7)">
		<ellipse cx="513.778076" cy="517.777954" rx="466.666199" ry="466.666382" fill="url(#paint_linear_9_2_0)"/>
		<g filter="url(#filter_9_5_dd)">
			<path d="M607.884 566.587C595.312 579.159 580.847 588.762 564.489 595.395C548.699 601.798 532.252 605 515.148 605C498.044 605 481.597 601.798 465.807 595.395C447.948 588.153 438.959 569.213 438.959 549.941L438.959 542.523C438.959 536.995 446.788 534.394 450.697 538.303C459.445 547.051 469.492 553.726 480.839 558.327C491.809 562.776 503.245 565 515.148 565C527.051 565 538.487 562.776 549.457 558.327C560.804 553.726 570.851 547.051 579.599 538.303L699.052 418.85C707.8 410.102 714.475 400.055 719.076 388.708C723.525 377.738 725.749 366.302 725.749 354.399C725.749 342.496 723.525 331.06 719.076 320.09C714.475 308.743 707.8 298.695 699.052 289.948C690.304 281.2 680.257 274.525 668.91 269.924C657.94 265.475 646.504 263.251 634.601 263.251C622.698 263.251 611.261 265.475 600.292 269.924C588.945 274.525 578.897 281.2 570.149 289.948L450.697 409.4C441.948 418.148 435.274 428.196 430.673 439.543C429.872 441.516 429.144 443.505 428.487 445.509C425.269 455.336 416.805 463.2 406.465 463.2C394.584 463.2 385.086 452.992 388.02 441.478C389.483 435.741 391.344 430.085 393.604 424.511C400.238 408.153 409.84 393.688 422.412 381.116L541.865 261.663C554.437 249.092 568.902 239.489 585.26 232.855C601.05 226.452 617.497 223.251 634.601 223.251C651.705 223.251 668.152 226.452 683.942 232.855C700.3 239.489 714.765 249.091 727.336 261.663C739.908 274.235 749.511 288.7 756.144 305.058C762.547 320.848 765.749 337.295 765.749 354.399C765.749 371.503 762.547 387.95 756.144 403.74C749.511 420.098 739.908 434.563 727.336 447.135L607.884 566.587Z" fill-rule="evenodd" fill="#38E274" fill-opacity="1.000000"/>
			<path d="M418.116 472.987C430.688 460.416 445.153 450.813 461.511 444.18C477.301 437.777 493.748 434.575 510.852 434.575C527.956 434.575 544.403 437.777 560.193 444.18C563.624 445.571 566.971 447.093 570.235 448.745C587.122 457.293 595.08 476.102 595.08 495.029C595.08 502.81 580.805 506.774 575.303 501.272C566.555 492.524 556.508 485.849 545.161 481.248C534.191 476.799 522.755 474.575 510.852 474.575C498.949 474.575 487.512 476.799 476.543 481.248C465.196 485.849 455.148 492.524 446.4 501.272L326.948 620.725C318.199 629.473 311.525 639.52 306.924 650.867C302.475 661.837 300.251 673.273 300.251 685.176C300.251 697.079 302.475 708.515 306.924 719.485C311.525 730.832 318.199 740.879 326.948 749.627C335.696 758.375 345.743 765.05 357.09 769.651C368.06 774.1 379.496 776.324 391.399 776.324C403.302 776.324 414.738 774.1 425.708 769.651C437.055 765.05 447.102 758.375 455.85 749.627L575.303 630.174C584.051 621.427 590.726 611.379 595.327 600.032C596.055 598.237 596.724 596.428 597.333 594.608C600.598 584.846 609.043 577.057 619.336 577.057C631.274 577.057 640.795 587.348 637.773 598.897C636.343 604.36 634.551 609.749 632.395 615.064C625.762 631.422 616.159 645.887 603.587 658.459L484.135 777.912C471.563 790.483 457.098 800.086 440.74 806.72C424.95 813.123 408.503 816.324 391.399 816.324C374.295 816.324 357.848 813.123 342.058 806.72C325.7 800.086 311.235 790.483 298.663 777.912C286.092 765.34 276.489 750.875 269.855 734.517C263.452 718.727 260.251 702.28 260.251 685.176C260.251 668.072 263.452 651.625 269.855 635.835C276.489 619.477 286.092 605.012 298.663 592.44L418.116 472.987Z" fill-rule="evenodd" fill="#FCDA01" fill-opacity="1.000000"/>
		</g>
	</g>
	<defs>
		<filter id="filter_9_5_dd" x="240.250977" y="223.250885" width="545.497803" height="633.073242" filterUnits="userSpaceOnUse" color-interpolation-filters="sRGB">
			<feFlood flood-opacity="0" result="BackgroundImageFix"/>
			<feColorMatrix in="SourceAlpha" type="matrix" values="0 0 0 0 0 0 0 0 0 0 0 0 0 0 0 0 0 0 127 0"/>
			<feOffset dx="0" dy="20"/>
			<feGaussianBlur stdDeviation="6.66667"/>
			<feColorMatrix type="matrix" values="0 0 0 0 0 0 0 0 0 0 0 0 0 0 0 0 0 0 0.25 0"/>
			<feBlend mode="normal" in2="BackgroundImageFix" result="effect_dropShadow_1"/>
			<feBlend mode="normal" in="SourceGraphic" in2="effect_dropShadow_1" result="shape"/>
		</filter>
		<clipPath id="clip9_7">
			<rect width="1024.000000" height="1024.000000" fill="white"/>
		</clipPath>
		<linearGradient id="paint_linear_9_2_0" x1="863.777710" y1="855.555420" x2="143.778503" y2="213.333832" gradientUnits="userSpaceOnUse">
			<stop stop-color="#0082E0"/>
			<stop offset="0.992366" stop-color="#5AB9FF"/>
		</linearGradient>
	</defs>
</svg>
