<svg width="1024.000000" height="1024.000000" viewBox="0 0 1024 1024" fill="none" xmlns="http://www.w3.org/2000/svg" xmlns:xlink="http://www.w3.org/1999/xlink">
	<desc>
			Created with Pixso.
	</desc>
	<g clip-path="url(#clip15_19)">
		<ellipse cx="512.500000" cy="512.000000" rx="704.500000" ry="743.000000" fill="url(#paint_linear_15_21_0)"/>
		<path d="M50.9739 540.908L35 495.047L50.9739 440.761L47.0109 356.5C45.9948 339.464 47.1938 325.973 50.608 316.027C54.0223 305.989 59.0625 301.339 65.7284 302.076L103.712 302.076L103.712 367.136L85.2385 367.136C82.3933 366.4 80.1375 367.182 78.4709 369.485C76.8044 371.695 76.1338 375.47 76.459 380.812L80.4829 440.761L64.509 495.6L80.4829 540.355L76.459 602.515C76.1338 606.659 75.89 610.803 75.7274 614.947C75.5648 619.091 75.6055 622.959 75.8494 626.55C76.0931 630.142 76.6622 633.18 77.5564 635.667C78.4913 638.153 80.1172 639.581 82.434 639.949L103.712 645.612L103.712 712.331L63.9603 705.01C59.8145 703.812 56.4814 701.142 53.9614 696.998C51.4819 692.854 49.6528 687.421 48.4741 680.698C47.3361 673.884 46.7263 665.872 46.645 656.663C46.5638 647.362 46.6857 637.232 47.0109 626.274L50.9739 540.908Z" fill-rule="nonzero" fill="#38E274"/>
		<path d="" fill-rule="nonzero" fill="#38E274"/>
		<path d="M238.306 712.883L210.321 712.883L171.849 424.876L199.59 424.876L224.039 607.626L247.756 424.876L275.741 424.876L238.306 712.883Z" fill-rule="nonzero" fill="#38E274"/>
		<path d="M238.306 712.883L210.321 712.883L171.849 424.876L199.59 424.876L224.039 607.626L247.756 424.876L275.741 424.876L238.306 712.883Z" fill-rule="nonzero" fill="#FCDA01"/>
		<path d="M288.246 516.044C288.734 503.98 289.933 492.469 291.843 481.51C293.754 470.552 296.538 460.929 300.196 452.641C303.895 444.353 308.488 437.676 313.975 432.611C319.462 427.454 325.783 424.876 332.936 424.876L347.935 424.876C355.414 424.876 361.937 427.731 367.506 433.44C373.115 439.058 377.749 446.517 381.407 455.818C385.065 465.027 387.809 475.571 389.638 487.45C391.467 499.33 392.381 511.301 392.381 523.365L392.381 712.883L321.474 712.883C315.946 712.883 311.008 710.535 306.659 705.838C302.35 701.142 298.733 694.926 295.806 687.19C292.92 679.455 290.766 670.292 289.343 659.702C287.921 649.112 287.209 637.785 287.209 625.721C287.209 614.026 287.961 603.114 289.465 592.984C290.969 582.762 293.123 573.968 295.928 566.6C298.773 559.233 302.31 553.386 306.537 549.057C310.805 544.729 315.601 542.565 320.925 542.565L363.665 542.565L363.665 536.902C363.665 530.087 363.401 523.779 362.872 517.978C362.384 512.084 361.47 507.065 360.129 502.921C358.828 498.777 356.836 495.508 354.154 493.114C351.512 490.627 347.935 489.384 343.423 489.384L337.204 489.384C330.538 489.384 325.783 491.548 322.937 495.876C320.133 500.204 318.222 506.927 317.206 516.044L288.246 516.044ZM313.975 625.721C313.975 635.575 314.849 642.85 316.597 647.546C318.344 652.243 320.295 654.591 322.45 654.591L363.665 654.591L363.665 596.852L322.45 596.852C320.295 596.852 318.344 599.338 316.597 604.311C314.849 609.191 313.975 616.328 313.975 625.721Z" fill-rule="nonzero" fill="#38E274"/>
		<path d="M288.246 516.044C288.734 503.98 289.933 492.469 291.843 481.51C293.754 470.552 296.538 460.929 300.196 452.641C303.895 444.353 308.488 437.676 313.975 432.611C319.462 427.454 325.783 424.876 332.936 424.876L347.935 424.876C355.414 424.876 361.937 427.731 367.506 433.44C373.115 439.058 377.749 446.517 381.407 455.818C385.065 465.027 387.809 475.571 389.638 487.45C391.467 499.33 392.381 511.301 392.381 523.365L392.381 712.883L321.474 712.883C315.946 712.883 311.008 710.535 306.659 705.838C302.35 701.142 298.733 694.926 295.806 687.19C292.92 679.455 290.766 670.292 289.343 659.702C287.921 649.112 287.209 637.785 287.209 625.721C287.209 614.026 287.961 603.114 289.465 592.984C290.969 582.762 293.123 573.968 295.928 566.6C298.773 559.233 302.31 553.386 306.537 549.057C310.805 544.729 315.601 542.565 320.925 542.565L363.665 542.565L363.665 536.902C363.665 530.087 363.401 523.779 362.872 517.978C362.384 512.084 361.47 507.065 360.129 502.921C358.828 498.777 356.836 495.508 354.154 493.114C351.512 490.627 347.935 489.384 343.423 489.384L337.204 489.384C330.538 489.384 325.783 491.548 322.937 495.876C320.133 500.204 318.222 506.927 317.206 516.044L288.246 516.044ZM313.975 625.721C313.975 635.575 314.849 642.85 316.597 647.546C318.344 652.243 320.295 654.591 322.45 654.591L363.665 654.591L363.665 596.852L322.45 596.852C320.295 596.852 318.344 599.338 316.597 604.311C314.849 609.191 313.975 616.328 313.975 625.721Z" fill-rule="nonzero" fill="#FCDA01"/>
		<path d="M443.563 483.721C445.88 475.064 448.989 467.467 452.891 460.929C456.834 454.298 461.162 448.727 465.877 444.214C470.633 439.61 475.673 436.203 480.998 433.993C486.363 431.69 491.708 430.539 497.033 430.539L500.264 430.539L500.264 500.711L497.033 500.711C491.017 500.711 484.839 503.474 478.498 508.999C472.198 514.432 466.426 521.569 461.183 530.41C455.939 539.25 451.692 549.15 448.44 560.108C445.189 571.067 443.563 582.025 443.563 592.984L443.563 712.883L412.59 712.883L412.59 422.666L443.563 422.666L443.563 483.721Z" fill-rule="nonzero" fill="#38E274"/>
		<path d="M443.563 483.721C445.88 475.064 448.989 467.467 452.891 460.929C456.834 454.298 461.162 448.727 465.877 444.214C470.633 439.61 475.673 436.203 480.998 433.993C486.363 431.69 491.708 430.539 497.033 430.539L500.264 430.539L500.264 500.711L497.033 500.711C491.017 500.711 484.839 503.474 478.498 508.999C472.198 514.432 466.426 521.569 461.183 530.41C455.939 539.25 451.692 549.15 448.44 560.108C445.189 571.067 443.563 582.025 443.563 592.984L443.563 712.883L412.59 712.883L412.59 422.666L443.563 422.666L443.563 483.721Z" fill-rule="nonzero" fill="#FCDA01"/>
		<path d="M604.149 665.918L604.149 722L515.988 722L515.988 665.918L604.149 665.918Z" fill-rule="nonzero" fill="#38E274"/>
		<path d="M604.149 665.918L604.149 722L515.988 722L515.988 665.918L604.149 665.918Z" fill-rule="nonzero" fill="#FCDA01"/>
		<path d="M674.814 489.384C670.506 489.384 666.97 490.627 664.206 493.114C661.442 495.508 659.308 498.777 657.804 502.921C656.341 507.065 655.304 512.084 654.695 517.978C654.126 523.779 653.841 530.087 653.841 536.902L653.841 712.883L624.637 712.883L624.637 424.876L653.841 424.876L653.841 432.197C659.653 427.316 665.893 424.876 672.559 424.876L685.545 424.876C692.861 424.876 699.344 427.731 704.994 433.44C710.685 439.058 715.4 446.517 719.139 455.818C722.878 465.027 725.703 475.571 727.614 487.45C729.565 499.33 730.54 511.301 730.54 523.365L730.54 712.883L701.275 712.883L701.275 536.902C701.275 530.087 701.031 523.779 700.543 517.978C700.056 512.084 699.101 507.065 697.678 502.921C696.255 498.777 694.203 495.508 691.52 493.114C688.878 490.627 685.301 489.384 680.789 489.384L674.814 489.384Z" fill-rule="nonzero" fill="#38E274"/>
		<path d="M674.814 489.384C670.506 489.384 666.97 490.627 664.206 493.114C661.442 495.508 659.308 498.777 657.804 502.921C656.341 507.065 655.304 512.084 654.695 517.978C654.126 523.779 653.841 530.087 653.841 536.902L653.841 712.883L624.637 712.883L624.637 424.876L653.841 424.876L653.841 432.197C659.653 427.316 665.893 424.876 672.559 424.876L685.545 424.876C692.861 424.876 699.344 427.731 704.994 433.44C710.685 439.058 715.4 446.517 719.139 455.818C722.878 465.027 725.703 475.571 727.614 487.45C729.565 499.33 730.54 511.301 730.54 523.365L730.54 712.883L701.275 712.883L701.275 536.902C701.275 530.087 701.031 523.779 700.543 517.978C700.056 512.084 699.101 507.065 697.678 502.921C696.255 498.777 694.203 495.508 691.52 493.114C688.878 490.627 685.301 489.384 680.789 489.384L674.814 489.384Z" fill-rule="nonzero" fill="#FCDA01"/>
		<path d="M746.001 516.044C746.488 503.98 747.687 492.469 749.598 481.51C751.508 470.552 754.292 460.929 757.951 452.641C761.649 444.353 766.242 437.676 771.729 432.611C777.217 427.454 783.537 424.876 790.691 424.876L805.689 424.876C813.168 424.876 819.692 427.731 825.26 433.44C830.87 439.058 835.503 446.517 839.161 455.818C842.82 465.027 845.563 475.571 847.392 487.45C849.221 499.33 850.136 511.301 850.136 523.365L850.136 712.883L779.229 712.883C773.701 712.883 768.762 710.535 764.413 705.838C760.105 701.142 756.487 694.926 753.561 687.19C750.675 679.455 748.521 670.292 747.098 659.702C745.675 649.112 744.964 637.785 744.964 625.721C744.964 614.026 745.716 603.114 747.22 592.984C748.724 582.762 750.878 573.968 753.683 566.6C756.528 559.233 760.064 553.386 764.291 549.057C768.559 544.729 773.355 542.565 778.68 542.565L821.419 542.565L821.419 536.902C821.419 530.087 821.155 523.779 820.627 517.978C820.139 512.084 819.224 507.065 817.883 502.921C816.583 498.777 814.591 495.508 811.908 493.114C809.266 490.627 805.689 489.384 801.178 489.384L794.959 489.384C788.293 489.384 783.537 491.548 780.692 495.876C777.887 500.204 775.977 506.927 774.961 516.044L746.001 516.044ZM771.729 625.721C771.729 635.575 772.603 642.85 774.351 647.546C776.099 652.243 778.05 654.591 780.204 654.591L821.419 654.591L821.419 596.852L780.204 596.852C778.05 596.852 776.099 599.338 774.351 604.311C772.603 609.191 771.729 616.328 771.729 625.721Z" fill-rule="nonzero" fill="#38E274"/>
		<path d="M746.001 516.044C746.488 503.98 747.687 492.469 749.598 481.51C751.508 470.552 754.292 460.929 757.951 452.641C761.649 444.353 766.242 437.676 771.729 432.611C777.217 427.454 783.537 424.876 790.691 424.876L805.689 424.876C813.168 424.876 819.692 427.731 825.26 433.44C830.87 439.058 835.503 446.517 839.161 455.818C842.82 465.027 845.563 475.571 847.392 487.45C849.221 499.33 850.136 511.301 850.136 523.365L850.136 712.883L779.229 712.883C773.701 712.883 768.762 710.535 764.413 705.838C760.105 701.142 756.487 694.926 753.561 687.19C750.675 679.455 748.521 670.292 747.098 659.702C745.675 649.112 744.964 637.785 744.964 625.721C744.964 614.026 745.716 603.114 747.22 592.984C748.724 582.762 750.878 573.968 753.683 566.6C756.528 559.233 760.064 553.386 764.291 549.057C768.559 544.729 773.355 542.565 778.68 542.565L821.419 542.565L821.419 536.902C821.419 530.087 821.155 523.779 820.627 517.978C820.139 512.084 819.224 507.065 817.883 502.921C816.583 498.777 814.591 495.508 811.908 493.114C809.266 490.627 805.689 489.384 801.178 489.384L794.959 489.384C788.293 489.384 783.537 491.548 780.692 495.876C777.887 500.204 775.977 506.927 774.961 516.044L746.001 516.044ZM771.729 625.721C771.729 635.575 772.603 642.85 774.351 647.546C776.099 652.243 778.05 654.591 780.204 654.591L821.419 654.591L821.419 596.852L780.204 596.852C778.05 596.852 776.099 599.338 774.351 604.311C772.603 609.191 771.729 616.328 771.729 625.721Z" fill-rule="nonzero" fill="#FCDA01"/>
		<path d="" fill-rule="nonzero" fill="#38E274"/>
		<path d="" fill-rule="nonzero" fill="#FCDA01"/>
		<path d="M977.742 626.274C978.068 637.232 978.149 647.362 977.986 656.663C977.824 665.872 977.194 673.884 976.096 680.698C975.04 687.421 973.251 692.854 970.731 696.998C968.252 701.142 964.919 703.812 960.732 705.01L921.041 712.331L921.041 645.612L942.258 639.949C944.453 639.581 946.039 638.153 947.014 635.667C948.03 633.18 948.66 630.142 948.904 626.55C949.148 622.959 949.189 619.091 949.026 614.947C948.863 610.803 948.62 606.659 948.294 602.515L944.27 540.355L960.244 495.6L944.27 440.761L948.294 380.812C948.62 375.47 947.949 371.695 946.282 369.485C944.616 367.182 942.36 366.4 939.515 367.136L921.041 367.136L921.041 302.076L959.025 302.076C965.528 301.339 970.528 305.989 974.023 316.027C977.519 325.973 978.759 339.464 977.742 356.5L973.719 440.761L989.753 495.047L973.719 540.908L977.742 626.274Z" fill-rule="nonzero" fill="#38E274"/>
	</g>
	<defs>
		<clipPath id="clip15_19">
			<rect width="1024.000000" height="1024.000000" fill="white"/>
		</clipPath>
		<linearGradient id="paint_linear_15_21_0" x1="1040.874878" y1="1049.790527" x2="-46.067474" y2="27.280792" gradientUnits="userSpaceOnUse">
			<stop stop-color="#0082E0"/>
			<stop offset="0.992366" stop-color="#5AB9FF"/>
		</linearGradient>
	</defs>
</svg>
