<svg width="1024.000000" height="1024.000000" viewBox="0 0 1024 1024" fill="none" xmlns="http://www.w3.org/2000/svg" xmlns:xlink="http://www.w3.org/1999/xlink">
	<desc>
			Created with Pixso.
	</desc>
	<g clip-path="url(#clip15_3)">
		<ellipse cx="512.500000" cy="512.000000" rx="704.500000" ry="743.000000" fill="url(#paint_linear_15_6_0)"/>
		<path d="M49.2871 531.652L32 481.426L49.2871 421.971L44.9984 329.688C43.8986 311.03 45.1963 296.255 48.8912 285.362C52.5862 274.369 58.0406 269.276 65.2545 270.083L106.361 270.083L106.361 341.337L86.3685 341.337C83.2894 340.53 80.8481 341.388 79.0446 343.909C77.2411 346.33 76.5153 350.465 76.8672 356.314L81.222 421.971L63.9349 482.031L81.222 531.047L76.8672 599.124C76.5153 603.663 76.2514 608.201 76.0754 612.74C75.8995 617.278 75.9435 621.514 76.2074 625.448C76.4713 629.381 77.0872 632.709 78.0549 635.432C79.0666 638.156 80.8261 639.719 83.3334 640.122L106.361 646.325L106.361 719.395L63.3411 711.377C58.8544 710.066 55.2474 707.141 52.5202 702.602C49.8369 698.064 47.8575 692.113 46.5818 684.751C45.3502 677.288 44.6904 668.513 44.6024 658.428C44.5145 648.241 44.6464 637.147 44.9984 625.145L49.2871 531.652Z" fill-rule="nonzero" fill="#38E274"/>
		<path d="" fill-rule="nonzero" fill="#38E274"/>
		<path d="M252.019 720L221.733 720L180.099 404.574L210.121 404.574L236.579 604.722L262.246 404.574L292.531 404.574L252.019 720Z" fill-rule="nonzero" fill="#38E274"/>
		<path d="M252.019 720L221.733 720L180.099 404.574L210.121 404.574L236.579 604.722L262.246 404.574L292.531 404.574L252.019 720Z" fill-rule="nonzero" fill="#FCDA01"/>
		<path d="M306.064 504.421C306.592 491.209 307.89 478.602 309.957 466.6C312.024 454.598 315.038 444.059 318.996 434.982C322.999 425.905 327.97 418.593 333.908 413.046C339.846 407.398 346.687 404.574 354.428 404.574L370.66 404.574C378.753 404.574 385.813 407.7 391.84 413.953C397.91 420.106 402.924 428.275 406.883 438.461C410.842 448.547 413.811 460.095 415.791 473.105C417.77 486.116 418.76 499.227 418.76 512.439L418.76 720L342.024 720C336.042 720 330.697 717.428 325.99 712.285C321.328 707.141 317.413 700.333 314.246 691.861C311.123 683.389 308.791 673.354 307.252 661.756C305.712 650.157 304.942 637.752 304.942 624.54C304.942 611.731 305.756 599.78 307.384 588.686C309.011 577.491 311.343 567.859 314.378 559.791C317.457 551.722 321.284 545.318 325.858 540.578C330.477 535.838 335.668 533.467 341.43 533.467L387.683 533.467L387.683 527.265C387.683 519.801 387.397 512.893 386.825 506.539C386.297 500.084 385.307 494.588 383.856 490.049C382.448 485.51 380.293 481.93 377.39 479.308C374.531 476.585 370.66 475.223 365.777 475.223L359.047 475.223C351.833 475.223 346.687 477.593 343.607 482.334C340.572 487.074 338.505 494.436 337.405 504.421L306.064 504.421ZM333.908 624.54C333.908 635.332 334.854 643.299 336.745 648.443C338.637 653.587 340.748 656.158 343.08 656.158L387.683 656.158L387.683 592.922L343.08 592.922C340.748 592.922 338.637 595.645 336.745 601.091C334.854 606.436 333.908 614.253 333.908 624.54Z" fill-rule="nonzero" fill="#38E274"/>
		<path d="M306.064 504.421C306.592 491.209 307.89 478.602 309.957 466.6C312.024 454.598 315.038 444.059 318.996 434.982C322.999 425.905 327.97 418.593 333.908 413.046C339.846 407.398 346.687 404.574 354.428 404.574L370.66 404.574C378.753 404.574 385.813 407.7 391.84 413.953C397.91 420.106 402.924 428.275 406.883 438.461C410.842 448.547 413.811 460.095 415.791 473.105C417.77 486.116 418.76 499.227 418.76 512.439L418.76 720L342.024 720C336.042 720 330.697 717.428 325.99 712.285C321.328 707.141 317.413 700.333 314.246 691.861C311.123 683.389 308.791 673.354 307.252 661.756C305.712 650.157 304.942 637.752 304.942 624.54C304.942 611.731 305.756 599.78 307.384 588.686C309.011 577.491 311.343 567.859 314.378 559.791C317.457 551.722 321.284 545.318 325.858 540.578C330.477 535.838 335.668 533.467 341.43 533.467L387.683 533.467L387.683 527.265C387.683 519.801 387.397 512.893 386.825 506.539C386.297 500.084 385.307 494.588 383.856 490.049C382.448 485.51 380.293 481.93 377.39 479.308C374.531 476.585 370.66 475.223 365.777 475.223L359.047 475.223C351.833 475.223 346.687 477.593 343.607 482.334C340.572 487.074 338.505 494.436 337.405 504.421L306.064 504.421ZM333.908 624.54C333.908 635.332 334.854 643.299 336.745 648.443C338.637 653.587 340.748 656.158 343.08 656.158L387.683 656.158L387.683 592.922L343.08 592.922C340.748 592.922 338.637 595.645 336.745 601.091C334.854 606.436 333.908 614.253 333.908 624.54Z" fill-rule="nonzero" fill="#FCDA01"/>
		<path d="M474.149 469.021C476.656 459.54 480.021 451.22 484.244 444.059C488.511 436.797 493.195 430.695 498.298 425.754C503.444 420.711 508.899 416.979 514.661 414.559C520.468 412.037 526.252 410.776 532.014 410.776L535.511 410.776L535.511 487.628L532.014 487.628C525.504 487.628 518.818 490.654 511.956 496.706C505.138 502.656 498.892 510.472 493.217 520.154C487.543 529.837 482.946 540.679 479.427 552.68C475.908 564.682 474.149 576.684 474.149 588.686L474.149 720L440.63 720L440.63 402.153L474.149 402.153L474.149 469.021Z" fill-rule="nonzero" fill="#38E274"/>
		<path d="M474.149 469.021C476.656 459.54 480.021 451.22 484.244 444.059C488.511 436.797 493.195 430.695 498.298 425.754C503.444 420.711 508.899 416.979 514.661 414.559C520.468 412.037 526.252 410.776 532.014 410.776L535.511 410.776L535.511 487.628L532.014 487.628C525.504 487.628 518.818 490.654 511.956 496.706C505.138 502.656 498.892 510.472 493.217 520.154C487.543 529.837 482.946 540.679 479.427 552.68C475.908 564.682 474.149 576.684 474.149 588.686L474.149 720L440.63 720L440.63 402.153L474.149 402.153L474.149 469.021Z" fill-rule="nonzero" fill="#FCDA01"/>
		<path d="M590.665 443.605L590.665 720L557.674 720L557.674 298.07L590.665 298.07L653.083 576.886L653.083 298.07L685.216 298.07L685.216 720L653.083 720L590.665 443.605Z" fill-rule="nonzero" fill="#38E274"/>
		<path d="M590.665 443.605L590.665 720L557.674 720L557.674 298.07L590.665 298.07L653.083 576.886L653.083 298.07L685.216 298.07L685.216 720L653.083 720L590.665 443.605Z" fill-rule="nonzero" fill="#FCDA01"/>
		<path d="M704.696 504.421C705.224 491.209 706.521 478.602 708.589 466.6C710.656 454.598 713.669 444.059 717.628 434.982C721.631 425.905 726.602 418.593 732.54 413.046C738.478 407.398 745.318 404.574 753.06 404.574L769.291 404.574C777.385 404.574 784.445 407.7 790.471 413.953C796.542 420.106 801.556 428.275 805.515 438.461C809.474 448.547 812.443 460.095 814.422 473.105C816.402 486.116 817.392 499.227 817.392 512.439L817.392 720L740.656 720C734.673 720 729.329 717.428 724.622 712.285C719.959 707.141 716.045 700.333 712.878 691.861C709.754 683.389 707.423 673.354 705.883 661.756C704.344 650.157 703.574 637.752 703.574 624.54C703.574 611.731 704.388 599.78 706.015 588.686C707.643 577.491 709.974 567.859 713.01 559.791C716.089 551.722 719.915 545.318 724.49 540.578C729.109 535.838 734.299 533.467 740.062 533.467L786.315 533.467L786.315 527.265C786.315 519.801 786.029 512.893 785.457 506.539C784.929 500.084 783.939 494.588 782.488 490.049C781.08 485.51 778.925 481.93 776.021 479.308C773.162 476.585 769.291 475.223 764.409 475.223L757.679 475.223C750.465 475.223 745.318 477.593 742.239 482.334C739.204 487.074 737.137 494.436 736.037 504.421L704.696 504.421ZM732.54 624.54C732.54 635.332 733.486 643.299 735.377 648.443C737.269 653.587 739.38 656.158 741.711 656.158L786.315 656.158L786.315 592.922L741.711 592.922C739.38 592.922 737.269 595.645 735.377 601.091C733.486 606.436 732.54 614.253 732.54 624.54Z" fill-rule="nonzero" fill="#38E274"/>
		<path d="M704.696 504.421C705.224 491.209 706.521 478.602 708.589 466.6C710.656 454.598 713.669 444.059 717.628 434.982C721.631 425.905 726.602 418.593 732.54 413.046C738.478 407.398 745.318 404.574 753.06 404.574L769.291 404.574C777.385 404.574 784.445 407.7 790.471 413.953C796.542 420.106 801.556 428.275 805.515 438.461C809.474 448.547 812.443 460.095 814.422 473.105C816.402 486.116 817.392 499.227 817.392 512.439L817.392 720L740.656 720C734.673 720 729.329 717.428 724.622 712.285C719.959 707.141 716.045 700.333 712.878 691.861C709.754 683.389 707.423 673.354 705.883 661.756C704.344 650.157 703.574 637.752 703.574 624.54C703.574 611.731 704.388 599.78 706.015 588.686C707.643 577.491 709.974 567.859 713.01 559.791C716.089 551.722 719.915 545.318 724.49 540.578C729.109 535.838 734.299 533.467 740.062 533.467L786.315 533.467L786.315 527.265C786.315 519.801 786.029 512.893 785.457 506.539C784.929 500.084 783.939 494.588 782.488 490.049C781.08 485.51 778.925 481.93 776.021 479.308C773.162 476.585 769.291 475.223 764.409 475.223L757.679 475.223C750.465 475.223 745.318 477.593 742.239 482.334C739.204 487.074 737.137 494.436 736.037 504.421L704.696 504.421ZM732.54 624.54C732.54 635.332 733.486 643.299 735.377 648.443C737.269 653.587 739.38 656.158 741.711 656.158L786.315 656.158L786.315 592.922L741.711 592.922C739.38 592.922 737.269 595.645 735.377 601.091C733.486 606.436 732.54 614.253 732.54 624.54Z" fill-rule="nonzero" fill="#FCDA01"/>
		<path d="" fill-rule="nonzero" fill="#38E274"/>
		<path d="" fill-rule="nonzero" fill="#FCDA01"/>
		<path d="M955.488 625.145C955.84 637.147 955.928 648.241 955.752 658.428C955.576 668.513 954.894 677.288 953.707 684.751C952.563 692.113 950.628 698.064 947.9 702.602C945.217 707.141 941.61 710.066 937.079 711.377L894.126 719.395L894.126 646.325L917.087 640.122C919.462 639.719 921.178 638.156 922.234 635.432C923.333 632.709 924.015 629.381 924.279 625.448C924.543 621.514 924.587 617.278 924.411 612.74C924.235 608.201 923.971 603.663 923.619 599.124L919.265 531.047L936.552 482.031L919.265 421.971L923.619 356.314C923.971 350.465 923.245 346.33 921.442 343.909C919.638 341.388 917.197 340.53 914.118 341.337L894.126 341.337L894.126 270.083L935.232 270.083C942.27 269.276 947.68 274.369 951.463 285.362C955.246 296.255 956.588 311.03 955.488 329.688L951.133 421.971L968.486 481.426L951.133 531.652L955.488 625.145Z" fill-rule="nonzero" fill="#38E274"/>
	</g>
	<defs>
		<clipPath id="clip15_3">
			<rect width="1024.000000" height="1024.000000" fill="white"/>
		</clipPath>
		<linearGradient id="paint_linear_15_6_0" x1="1040.874878" y1="1049.790527" x2="-46.067474" y2="27.280792" gradientUnits="userSpaceOnUse">
			<stop stop-color="#0082E0"/>
			<stop offset="0.992366" stop-color="#5AB9FF"/>
		</linearGradient>
	</defs>
</svg>
