<svg width="1024.000000" height="1024.000000" viewBox="0 0 1024 1024" fill="none" xmlns="http://www.w3.org/2000/svg" xmlns:xlink="http://www.w3.org/1999/xlink">
	<desc>
			Created with Pixso.
	</desc>
	<g clip-path="url(#clip6_85)">
		<ellipse cx="512.666199" cy="511.666382" rx="466.666199" ry="466.666382" fill="url(#paint_linear_6_80_0)"/>
		<g filter="url(#filter_6_83_dd)">
			<path d="M246.025 386.339L503.248 239C509.436 235.455 517.043 235.474 523.214 239.048L777.572 386.388C790.843 394.075 790.879 413.225 777.637 420.962L523.279 569.583C517.075 573.208 509.404 573.226 503.183 569.632L245.96 421.011C232.605 413.295 232.641 394.005 246.025 386.339Z" fill-rule="evenodd" fill="#FCDA01"/>
			<path d="M222.829 481.218L235.405 474.153C241.5 470.729 248.94 470.735 255.028 474.17L506.279 615.916C512.366 619.35 519.804 619.357 525.898 615.935L774.039 476.599C780.184 473.149 787.691 473.187 793.8 476.7L801.591 481.18C814.997 488.888 814.957 508.243 801.52 515.897L522.948 674.557C516.832 678.04 509.335 678.052 503.207 674.589L222.783 516.065C209.219 508.397 209.244 488.85 222.829 481.218Z" fill-rule="evenodd" fill="#38E274"/>
			<path d="M222.829 587.884L235.405 580.819C241.5 577.396 248.94 577.402 255.028 580.837L506.279 722.582C512.366 726.016 519.804 726.024 525.898 722.602L774.039 583.266C780.184 579.815 787.691 579.854 793.8 583.367L801.591 587.846C814.997 595.555 814.957 614.91 801.52 622.563L522.948 781.224C516.832 784.707 509.335 784.719 503.207 781.255L222.783 622.732C209.219 615.064 209.245 595.516 222.829 587.884Z" fill-rule="evenodd" fill="#38E274"/>
		</g>
	</g>
	<defs>
		<filter id="filter_6_83_dd" x="171.888123" y="107.888794" width="680.000000" height="718.951294" filterUnits="userSpaceOnUse" color-interpolation-filters="sRGB">
			<feFlood flood-opacity="0" result="BackgroundImageFix"/>
			<feColorMatrix in="SourceAlpha" type="matrix" values="0 0 0 0 0 0 0 0 0 0 0 0 0 0 0 0 0 0 127 0"/>
			<feOffset dx="0" dy="20"/>
			<feGaussianBlur stdDeviation="6.66667"/>
			<feColorMatrix type="matrix" values="0 0 0 0 0 0 0 0 0 0 0 0 0 0 0 0 0 0 0.25 0"/>
			<feBlend mode="normal" in2="BackgroundImageFix" result="effect_dropShadow_1"/>
			<feBlend mode="normal" in="SourceGraphic" in2="effect_dropShadow_1" result="shape"/>
		</filter>
		<clipPath id="clip6_85">
			<rect rx="20.000000" width="1024.000000" height="1024.000000" fill="white"/>
		</clipPath>
		<linearGradient id="paint_linear_6_80_0" x1="862.665894" y1="849.443848" x2="142.666687" y2="207.222260" gradientUnits="userSpaceOnUse">
			<stop stop-color="#0082E0"/>
			<stop offset="0.992366" stop-color="#5AB9FF"/>
		</linearGradient>
	</defs>
</svg>
