<svg width="1023.999939" height="1024.000000" viewBox="0 0 1024 1024" fill="none" xmlns="http://www.w3.org/2000/svg" xmlns:xlink="http://www.w3.org/1999/xlink">
	<desc>
			Created with Pixso.
	</desc>
	<g clip-path="url(#clip15_25)">
		<ellipse cx="512.499939" cy="512.000000" rx="704.500000" ry="743.000000" fill="url(#paint_linear_15_27_0)"/>
		<path d="M32.9738 540.908L16.9999 495.047L32.9738 440.761L29.0108 356.5C27.9947 339.464 29.1937 325.973 32.608 316.027C36.0223 305.989 41.0624 301.339 47.7284 302.076L85.7122 302.076L85.7122 367.136L67.2385 367.136C64.3932 366.4 62.1374 367.182 60.4709 369.485C58.8044 371.695 58.1338 375.47 58.4589 380.812L62.4829 440.761L46.509 495.6L62.4829 540.355L58.4589 602.515C58.1338 606.659 57.8899 610.803 57.7273 614.947C57.5647 619.091 57.6053 622.959 57.8492 626.55C58.0931 630.142 58.6622 633.18 59.5564 635.667C60.4913 638.153 62.1171 639.581 64.4339 639.949L85.7122 645.612L85.7122 712.331L45.9603 705.01C41.8143 703.812 38.4814 701.142 35.9613 696.998C33.4819 692.854 31.6528 687.421 30.4741 680.698C29.336 673.884 28.7263 665.872 28.645 656.663C28.5637 647.362 28.6857 637.232 29.0108 626.274L32.9738 540.908Z" fill-rule="nonzero" fill="#38E274"/>
		<path d="" fill-rule="nonzero" fill="#38E274"/>
		<path d="M216.038 580.552L217.562 580.552C221.871 538.283 226.321 496.429 230.914 454.989C235.507 413.457 240.039 371.004 244.511 327.63L274.995 327.63L233.048 712.883L200.552 712.883L157.081 327.63L187.809 327.63L216.038 580.552Z" fill-rule="nonzero" fill="#38E274"/>
		<path d="M216.038 580.552L217.562 580.552C221.871 538.283 226.321 496.429 230.914 454.989C235.507 413.457 240.039 371.004 244.511 327.63L274.995 327.63L233.048 712.883L200.552 712.883L157.081 327.63L187.809 327.63L216.038 580.552Z" fill-rule="nonzero" fill="#FCDA01"/>
		<path d="M291.473 516.044C291.961 503.98 293.16 492.469 295.07 481.51C296.98 470.552 299.765 460.929 303.423 452.641C307.122 444.353 311.715 437.676 317.202 432.611C322.689 427.454 329.01 424.876 336.163 424.876L351.162 424.876C358.641 424.876 365.164 427.731 370.733 433.44C376.342 439.058 380.976 446.517 384.634 455.818C388.292 465.027 391.036 475.571 392.865 487.45C394.694 499.33 395.608 511.301 395.608 523.365L395.608 712.883L324.701 712.883C319.173 712.883 314.235 710.535 309.886 705.838C305.577 701.142 301.96 694.926 299.033 687.19C296.147 679.455 293.993 670.292 292.57 659.702C291.148 649.112 290.436 637.785 290.436 625.721C290.436 614.026 291.188 603.114 292.692 592.984C294.196 582.762 296.35 573.968 299.155 566.6C302 559.233 305.536 553.386 309.764 549.057C314.031 544.729 318.828 542.565 324.152 542.565L366.892 542.565L366.892 536.902C366.892 530.087 366.628 523.779 366.099 517.978C365.611 512.084 364.697 507.065 363.356 502.921C362.055 498.777 360.063 495.508 357.381 493.114C354.739 490.627 351.162 489.384 346.65 489.384L340.431 489.384C333.765 489.384 329.01 491.548 326.164 495.876C323.36 500.204 321.449 506.927 320.433 516.044L291.473 516.044ZM317.202 625.721C317.202 635.575 318.076 642.85 319.824 647.546C321.571 652.243 323.522 654.591 325.677 654.591L366.892 654.591L366.892 596.852L325.677 596.852C323.522 596.852 321.571 599.338 319.824 604.311C318.076 609.191 317.202 616.328 317.202 625.721Z" fill-rule="nonzero" fill="#38E274"/>
		<path d="M291.473 516.044C291.961 503.98 293.16 492.469 295.07 481.51C296.98 470.552 299.765 460.929 303.423 452.641C307.122 444.353 311.715 437.676 317.202 432.611C322.689 427.454 329.01 424.876 336.163 424.876L351.162 424.876C358.641 424.876 365.164 427.731 370.733 433.44C376.342 439.058 380.976 446.517 384.634 455.818C388.292 465.027 391.036 475.571 392.865 487.45C394.694 499.33 395.608 511.301 395.608 523.365L395.608 712.883L324.701 712.883C319.173 712.883 314.235 710.535 309.886 705.838C305.577 701.142 301.96 694.926 299.033 687.19C296.147 679.455 293.993 670.292 292.57 659.702C291.148 649.112 290.436 637.785 290.436 625.721C290.436 614.026 291.188 603.114 292.692 592.984C294.196 582.762 296.35 573.968 299.155 566.6C302 559.233 305.536 553.386 309.764 549.057C314.031 544.729 318.828 542.565 324.152 542.565L366.892 542.565L366.892 536.902C366.892 530.087 366.628 523.779 366.099 517.978C365.611 512.084 364.697 507.065 363.356 502.921C362.055 498.777 360.063 495.508 357.381 493.114C354.739 490.627 351.162 489.384 346.65 489.384L340.431 489.384C333.765 489.384 329.01 491.548 326.164 495.876C323.36 500.204 321.449 506.927 320.433 516.044L291.473 516.044ZM317.202 625.721C317.202 635.575 318.076 642.85 319.824 647.546C321.571 652.243 323.522 654.591 325.677 654.591L366.892 654.591L366.892 596.852L325.677 596.852C323.522 596.852 321.571 599.338 319.824 604.311C318.076 609.191 317.202 616.328 317.202 625.721Z" fill-rule="nonzero" fill="#FCDA01"/>
		<path d="M446.79 483.721C449.107 475.064 452.216 467.467 456.118 460.929C460.061 454.298 464.389 448.727 469.104 444.214C473.86 439.61 478.9 436.203 484.225 433.993C489.59 431.69 494.935 430.539 500.26 430.539L503.491 430.539L503.491 500.711L500.26 500.711C494.244 500.711 488.066 503.474 481.725 508.999C475.425 514.432 469.653 521.569 464.41 530.41C459.166 539.25 454.919 549.15 451.667 560.108C448.416 571.067 446.79 582.025 446.79 592.984L446.79 712.883L415.817 712.883L415.817 422.666L446.79 422.666L446.79 483.721Z" fill-rule="nonzero" fill="#38E274"/>
		<path d="M446.79 483.721C449.107 475.064 452.216 467.467 456.118 460.929C460.061 454.298 464.389 448.727 469.104 444.214C473.86 439.61 478.9 436.203 484.225 433.993C489.59 431.69 494.935 430.539 500.26 430.539L503.491 430.539L503.491 500.711L500.26 500.711C494.244 500.711 488.066 503.474 481.725 508.999C475.425 514.432 469.653 521.569 464.41 530.41C459.166 539.25 454.919 549.15 451.667 560.108C448.416 571.067 446.79 582.025 446.79 592.984L446.79 712.883L415.817 712.883L415.817 422.666L446.79 422.666L446.79 483.721Z" fill-rule="nonzero" fill="#FCDA01"/>
		<path d="M607.376 665.918L607.376 722L519.215 722L519.215 665.918L607.376 665.918Z" fill-rule="nonzero" fill="#38E274"/>
		<path d="M607.376 665.918L607.376 722L519.215 722L519.215 665.918L607.376 665.918Z" fill-rule="nonzero" fill="#FCDA01"/>
		<path d="M658.592 460.514L658.592 712.883L628.108 712.883L628.108 327.63L658.592 327.63L716.269 582.209L716.269 327.63L745.961 327.63L745.961 712.883L716.269 712.883L658.592 460.514Z" fill-rule="nonzero" fill="#38E274"/>
		<path d="M658.592 460.514L658.592 712.883L628.108 712.883L628.108 327.63L658.592 327.63L716.269 582.209L716.269 327.63L745.961 327.63L745.961 712.883L716.269 712.883L658.592 460.514Z" fill-rule="nonzero" fill="#FCDA01"/>
		<path d="M763.962 516.044C764.449 503.98 765.648 492.469 767.559 481.51C769.469 470.552 772.253 460.929 775.912 452.641C779.61 444.353 784.203 437.676 789.691 432.611C795.178 427.454 801.498 424.876 808.652 424.876L823.65 424.876C831.129 424.876 837.653 427.731 843.222 433.44C848.831 439.058 853.464 446.517 857.122 455.818C860.781 465.027 863.524 475.571 865.353 487.45C867.182 499.33 868.097 511.301 868.097 523.365L868.097 712.883L797.19 712.883C791.662 712.883 786.723 710.535 782.374 705.838C778.066 701.142 774.448 694.926 771.522 687.19C768.636 679.455 766.482 670.292 765.059 659.702C763.636 649.112 762.925 637.785 762.925 625.721C762.925 614.026 763.677 603.114 765.181 592.984C766.685 582.762 768.839 573.968 771.644 566.6C774.489 559.233 778.025 553.386 782.252 549.057C786.52 544.729 791.316 542.565 796.641 542.565L839.38 542.565L839.38 536.902C839.38 530.087 839.116 523.779 838.588 517.978C838.1 512.084 837.185 507.065 835.844 502.921C834.544 498.777 832.552 495.508 829.869 493.114C827.227 490.627 823.65 489.384 819.139 489.384L812.92 489.384C806.254 489.384 801.498 491.548 798.653 495.876C795.849 500.204 793.938 506.927 792.922 516.044L763.962 516.044ZM789.691 625.721C789.691 635.575 790.564 642.85 792.312 647.546C794.06 652.243 796.011 654.591 798.165 654.591L839.38 654.591L839.38 596.852L798.165 596.852C796.011 596.852 794.06 599.338 792.312 604.311C790.564 609.191 789.691 616.328 789.691 625.721Z" fill-rule="nonzero" fill="#38E274"/>
		<path d="M763.962 516.044C764.449 503.98 765.648 492.469 767.559 481.51C769.469 470.552 772.253 460.929 775.912 452.641C779.61 444.353 784.203 437.676 789.691 432.611C795.178 427.454 801.498 424.876 808.652 424.876L823.65 424.876C831.129 424.876 837.653 427.731 843.222 433.44C848.831 439.058 853.464 446.517 857.122 455.818C860.781 465.027 863.524 475.571 865.353 487.45C867.182 499.33 868.097 511.301 868.097 523.365L868.097 712.883L797.19 712.883C791.662 712.883 786.723 710.535 782.374 705.838C778.066 701.142 774.448 694.926 771.522 687.19C768.636 679.455 766.482 670.292 765.059 659.702C763.636 649.112 762.925 637.785 762.925 625.721C762.925 614.026 763.677 603.114 765.181 592.984C766.685 582.762 768.839 573.968 771.644 566.6C774.489 559.233 778.025 553.386 782.252 549.057C786.52 544.729 791.316 542.565 796.641 542.565L839.38 542.565L839.38 536.902C839.38 530.087 839.116 523.779 838.588 517.978C838.1 512.084 837.185 507.065 835.844 502.921C834.544 498.777 832.552 495.508 829.869 493.114C827.227 490.627 823.65 489.384 819.139 489.384L812.92 489.384C806.254 489.384 801.498 491.548 798.653 495.876C795.849 500.204 793.938 506.927 792.922 516.044L763.962 516.044ZM789.691 625.721C789.691 635.575 790.564 642.85 792.312 647.546C794.06 652.243 796.011 654.591 798.165 654.591L839.38 654.591L839.38 596.852L798.165 596.852C796.011 596.852 794.06 599.338 792.312 604.311C790.564 609.191 789.691 616.328 789.691 625.721Z" fill-rule="nonzero" fill="#FCDA01"/>
		<path d="" fill-rule="nonzero" fill="#38E274"/>
		<path d="" fill-rule="nonzero" fill="#FCDA01"/>
		<path d="M995.704 626.274C996.029 637.232 996.11 647.362 995.947 656.663C995.785 665.872 995.155 673.884 994.057 680.698C993 687.421 991.212 692.854 988.692 696.998C986.213 701.142 982.88 703.812 978.693 705.01L939.002 712.331L939.002 645.612L960.219 639.949C962.414 639.581 963.999 638.153 964.975 635.667C965.991 633.18 966.621 630.142 966.865 626.55C967.109 622.959 967.15 619.091 966.987 614.947C966.824 610.803 966.581 606.659 966.255 602.515L962.231 540.355L978.205 495.6L962.231 440.761L966.255 380.812C966.581 375.47 965.91 371.695 964.243 369.485C962.577 367.182 960.321 366.4 957.476 367.136L939.002 367.136L939.002 302.076L976.986 302.076C983.489 301.339 988.489 305.989 991.984 316.027C995.48 325.973 996.72 339.464 995.704 356.5L991.68 440.761L1007.71 495.047L991.68 540.908L995.704 626.274Z" fill-rule="nonzero" fill="#38E274"/>
	</g>
	<defs>
		<clipPath id="clip15_25">
			<rect width="1024.000000" height="1024.000000" fill="white"/>
		</clipPath>
		<linearGradient id="paint_linear_15_27_0" x1="1040.874756" y1="1049.790527" x2="-46.067535" y2="27.280792" gradientUnits="userSpaceOnUse">
			<stop stop-color="#0082E0"/>
			<stop offset="0.992366" stop-color="#5AB9FF"/>
		</linearGradient>
	</defs>
</svg>
