<svg width="1024.000000" height="1024.000000" viewBox="0 0 1024 1024" fill="none" xmlns="http://www.w3.org/2000/svg" xmlns:xlink="http://www.w3.org/1999/xlink">
	<desc>
			Created with Pixso.
	</desc>
	<g clip-path="url(#clip15_13)">
		<ellipse cx="512.500061" cy="512.000000" rx="704.500000" ry="743.000000" fill="url(#paint_linear_15_15_0)"/>
		<path d="M54.1149 548.652L37 498.426L54.1149 438.971L49.8689 346.688C48.7802 328.03 50.0648 313.255 53.723 302.362C57.3812 291.369 62.7812 286.276 69.9234 287.083L110.62 287.083L110.62 358.337L90.8271 358.337C87.7786 357.53 85.3616 358.388 83.5761 360.909C81.7906 363.33 81.072 367.465 81.4204 373.314L85.7318 438.971L68.6169 499.031L85.7318 548.047L81.4204 616.124C81.072 620.663 80.8107 625.201 80.6365 629.74C80.4623 634.278 80.5059 638.514 80.7672 642.448C81.0285 646.381 81.6382 649.709 82.5963 652.432C83.5979 655.156 85.3398 656.719 87.8222 657.122L110.62 663.325L110.62 736.395L68.029 728.377C63.5869 727.066 60.0159 724.141 57.3158 719.602C54.6593 715.064 52.6996 709.113 51.4366 701.751C50.2173 694.288 49.564 685.513 49.4769 675.428C49.3898 665.241 49.5205 654.147 49.8689 642.145L54.1149 548.652Z" fill-rule="nonzero" fill="#38E274"/>
		<path d="" fill-rule="nonzero" fill="#38E274"/>
		<path d="M250.255 592.07L251.888 592.07C256.504 545.778 261.273 499.939 266.194 454.554C271.115 409.068 275.971 362.573 280.761 315.07L313.424 315.07L268.481 737L233.663 737L187.087 315.07L220.01 315.07L250.255 592.07Z" fill-rule="nonzero" fill="#38E274"/>
		<path d="M250.255 592.07L251.888 592.07C256.504 545.778 261.273 499.939 266.194 454.554C271.115 409.068 275.971 362.573 280.761 315.07L313.424 315.07L268.481 737L233.663 737L187.087 315.07L220.01 315.07L250.255 592.07Z" fill-rule="nonzero" fill="#FCDA01"/>
		<path d="M331.078 521.421C331.601 508.209 332.886 495.602 334.932 483.6C336.979 471.598 339.962 461.059 343.882 451.982C347.845 442.905 352.766 435.593 358.645 430.046C364.524 424.398 371.296 421.574 378.961 421.574L395.031 421.574C403.044 421.574 410.033 424.7 416 430.953C422.009 437.106 426.974 445.275 430.893 455.461C434.813 465.547 437.753 477.095 439.712 490.105C441.672 503.116 442.652 516.227 442.652 529.439L442.652 737L366.68 737C360.757 737 355.466 734.428 350.806 729.285C346.19 724.141 342.314 717.333 339.178 708.861C336.086 700.389 333.778 690.354 332.254 678.756C330.73 667.157 329.968 654.752 329.968 641.54C329.968 628.731 330.773 616.78 332.385 605.686C333.996 594.491 336.304 584.859 339.309 576.791C342.357 568.722 346.146 562.318 350.675 557.578C355.248 552.838 360.387 550.467 366.092 550.467L411.884 550.467L411.884 544.265C411.884 536.801 411.601 529.893 411.035 523.539C410.512 517.084 409.533 511.588 408.095 507.049C406.702 502.51 404.568 498.93 401.694 496.308C398.863 493.585 395.031 492.223 390.197 492.223L383.534 492.223C376.391 492.223 371.296 494.593 368.248 499.334C365.243 504.074 363.196 511.436 362.107 521.421L331.078 521.421ZM358.645 641.54C358.645 652.332 359.581 660.299 361.454 665.443C363.326 670.587 365.417 673.158 367.725 673.158L411.884 673.158L411.884 609.922L367.725 609.922C365.417 609.922 363.326 612.645 361.454 618.091C359.581 623.436 358.645 631.253 358.645 641.54Z" fill-rule="nonzero" fill="#38E274"/>
		<path d="M331.078 521.421C331.601 508.209 332.886 495.602 334.932 483.6C336.979 471.598 339.962 461.059 343.882 451.982C347.845 442.905 352.766 435.593 358.645 430.046C364.524 424.398 371.296 421.574 378.961 421.574L395.031 421.574C403.044 421.574 410.033 424.7 416 430.953C422.009 437.106 426.974 445.275 430.893 455.461C434.813 465.547 437.753 477.095 439.712 490.105C441.672 503.116 442.652 516.227 442.652 529.439L442.652 737L366.68 737C360.757 737 355.466 734.428 350.806 729.285C346.19 724.141 342.314 717.333 339.178 708.861C336.086 700.389 333.778 690.354 332.254 678.756C330.73 667.157 329.968 654.752 329.968 641.54C329.968 628.731 330.773 616.78 332.385 605.686C333.996 594.491 336.304 584.859 339.309 576.791C342.357 568.722 346.146 562.318 350.675 557.578C355.248 552.838 360.387 550.467 366.092 550.467L411.884 550.467L411.884 544.265C411.884 536.801 411.601 529.893 411.035 523.539C410.512 517.084 409.533 511.588 408.095 507.049C406.702 502.51 404.568 498.93 401.694 496.308C398.863 493.585 395.031 492.223 390.197 492.223L383.534 492.223C376.391 492.223 371.296 494.593 368.248 499.334C365.243 504.074 363.196 511.436 362.107 521.421L331.078 521.421ZM358.645 641.54C358.645 652.332 359.581 660.299 361.454 665.443C363.326 670.587 365.417 673.158 367.725 673.158L411.884 673.158L411.884 609.922L367.725 609.922C365.417 609.922 363.326 612.645 361.454 618.091C359.581 623.436 358.645 631.253 358.645 641.54Z" fill-rule="nonzero" fill="#FCDA01"/>
		<path d="M497.489 486.021C499.971 476.54 503.303 468.22 507.484 461.059C511.708 453.797 516.346 447.695 521.398 442.754C526.493 437.711 531.893 433.979 537.598 431.559C543.347 429.037 549.073 427.776 554.778 427.776L558.241 427.776L558.241 504.628L554.778 504.628C548.333 504.628 541.714 507.654 534.92 513.706C528.17 519.656 521.986 527.472 516.368 537.154C510.75 546.837 506.199 557.679 502.715 569.68C499.231 581.682 497.489 593.684 497.489 605.686L497.489 737L464.305 737L464.305 419.153L497.489 419.153L497.489 486.021Z" fill-rule="nonzero" fill="#38E274"/>
		<path d="M497.489 486.021C499.971 476.54 503.303 468.22 507.484 461.059C511.708 453.797 516.346 447.695 521.398 442.754C526.493 437.711 531.893 433.979 537.598 431.559C543.347 429.037 549.073 427.776 554.778 427.776L558.241 427.776L558.241 504.628L554.778 504.628C548.333 504.628 541.714 507.654 534.92 513.706C528.17 519.656 521.986 527.472 516.368 537.154C510.75 546.837 506.199 557.679 502.715 569.68C499.231 581.682 497.489 593.684 497.489 605.686L497.489 737L464.305 737L464.305 419.153L497.489 419.153L497.489 486.021Z" fill-rule="nonzero" fill="#FCDA01"/>
		<path d="M612.845 460.605L612.845 737L580.183 737L580.183 315.07L612.845 315.07L674.641 593.886L674.641 315.07L706.454 315.07L706.454 737L674.641 737L612.845 460.605Z" fill-rule="nonzero" fill="#38E274"/>
		<path d="M612.845 460.605L612.845 737L580.183 737L580.183 315.07L612.845 315.07L674.641 593.886L674.641 315.07L706.454 315.07L706.454 737L674.641 737L612.845 460.605Z" fill-rule="nonzero" fill="#FCDA01"/>
		<path d="M725.741 521.421C726.263 508.209 727.548 495.602 729.595 483.6C731.641 471.598 734.625 461.059 738.544 451.982C742.507 442.905 747.428 435.593 753.307 430.046C759.186 424.398 765.958 421.574 773.623 421.574L789.693 421.574C797.706 421.574 804.696 424.7 810.662 430.953C816.672 437.106 821.636 445.275 825.556 455.461C829.475 465.547 832.415 477.095 834.375 490.105C836.334 503.116 837.314 516.227 837.314 529.439L837.314 737L761.342 737C755.419 737 750.128 734.428 745.468 729.285C740.852 724.141 736.976 717.333 733.841 708.861C730.749 700.389 728.44 690.354 726.916 678.756C725.392 667.157 724.63 654.752 724.63 641.54C724.63 628.731 725.436 616.78 727.047 605.686C728.658 594.491 730.966 584.859 733.971 576.791C737.02 568.722 740.809 562.318 745.338 557.578C749.91 552.838 755.049 550.467 760.754 550.467L806.546 550.467L806.546 544.265C806.546 536.801 806.263 529.893 805.697 523.539C805.175 517.084 804.195 511.588 802.758 507.049C801.364 502.51 799.23 498.93 796.356 496.308C793.525 493.585 789.693 492.223 784.859 492.223L778.196 492.223C771.054 492.223 765.958 494.593 762.91 499.334C759.905 504.074 757.858 511.436 756.769 521.421L725.741 521.421ZM753.307 641.54C753.307 652.332 754.243 660.299 756.116 665.443C757.989 670.587 760.079 673.158 762.387 673.158L806.546 673.158L806.546 609.922L762.387 609.922C760.079 609.922 757.989 612.645 756.116 618.091C754.243 623.436 753.307 631.253 753.307 641.54Z" fill-rule="nonzero" fill="#38E274"/>
		<path d="M725.741 521.421C726.263 508.209 727.548 495.602 729.595 483.6C731.641 471.598 734.625 461.059 738.544 451.982C742.507 442.905 747.428 435.593 753.307 430.046C759.186 424.398 765.958 421.574 773.623 421.574L789.693 421.574C797.706 421.574 804.696 424.7 810.662 430.953C816.672 437.106 821.636 445.275 825.556 455.461C829.475 465.547 832.415 477.095 834.375 490.105C836.334 503.116 837.314 516.227 837.314 529.439L837.314 737L761.342 737C755.419 737 750.128 734.428 745.468 729.285C740.852 724.141 736.976 717.333 733.841 708.861C730.749 700.389 728.44 690.354 726.916 678.756C725.392 667.157 724.63 654.752 724.63 641.54C724.63 628.731 725.436 616.78 727.047 605.686C728.658 594.491 730.966 584.859 733.971 576.791C737.02 568.722 740.809 562.318 745.338 557.578C749.91 552.838 755.049 550.467 760.754 550.467L806.546 550.467L806.546 544.265C806.546 536.801 806.263 529.893 805.697 523.539C805.175 517.084 804.195 511.588 802.758 507.049C801.364 502.51 799.23 498.93 796.356 496.308C793.525 493.585 789.693 492.223 784.859 492.223L778.196 492.223C771.054 492.223 765.958 494.593 762.91 499.334C759.905 504.074 757.858 511.436 756.769 521.421L725.741 521.421ZM753.307 641.54C753.307 652.332 754.243 660.299 756.116 665.443C757.989 670.587 760.079 673.158 762.387 673.158L806.546 673.158L806.546 609.922L762.387 609.922C760.079 609.922 757.989 612.645 756.116 618.091C754.243 623.436 753.307 631.253 753.307 641.54Z" fill-rule="nonzero" fill="#FCDA01"/>
		<path d="" fill-rule="nonzero" fill="#38E274"/>
		<path d="" fill-rule="nonzero" fill="#FCDA01"/>
		<path d="M974.035 642.145C974.384 654.147 974.471 665.241 974.297 675.428C974.122 685.513 973.447 694.288 972.272 701.751C971.139 709.113 969.223 715.064 966.523 719.602C963.867 724.141 960.295 727.066 955.81 728.377L913.284 736.395L913.284 663.325L936.017 657.122C938.368 656.719 940.067 655.156 941.112 652.432C942.201 649.709 942.876 646.381 943.137 642.448C943.398 638.514 943.442 634.278 943.268 629.74C943.093 625.201 942.832 620.663 942.484 616.124L938.172 548.047L955.287 499.031L938.172 438.971L942.484 373.314C942.832 367.465 942.114 363.33 940.328 360.909C938.543 358.388 936.126 357.53 933.077 358.337L913.284 358.337L913.284 287.083L953.981 287.083C960.949 286.276 966.305 291.369 970.051 302.362C973.796 313.255 975.124 328.03 974.035 346.688L969.724 438.971L986.904 498.426L969.724 548.652L974.035 642.145Z" fill-rule="nonzero" fill="#38E274"/>
	</g>
	<defs>
		<clipPath id="clip15_13">
			<rect width="1024.000000" height="1024.000000" fill="white"/>
		</clipPath>
		<linearGradient id="paint_linear_15_15_0" x1="1040.875000" y1="1049.790527" x2="-46.067413" y2="27.280792" gradientUnits="userSpaceOnUse">
			<stop stop-color="#0082E0"/>
			<stop offset="0.992366" stop-color="#5AB9FF"/>
		</linearGradient>
	</defs>
</svg>
